STARTFONT 2.1
FONT -FontForge-ITC Benguiat Gothic Std-Medium-R-Normal--18-170-75-75-P-93-ISO8859-1
SIZE 17 75 75
FONTBOUNDINGBOX 21 21 -3 -4
COMMENT "Generated by fontforge, http://fontforge.sourceforge.net"
COMMENT "Copyright 1990, 1995 , 2002Adobe Systems Incorporated. All Rights Reserved. ITC Benguiat Gothic is a registered trademark of International Typeface Corporation."
STARTPROPERTIES 40
FOUNDRY "FontForge"
FAMILY_NAME "ITC Benguiat Gothic Std"
WEIGHT_NAME "Medium"
SLANT "R"
SETWIDTH_NAME "Normal"
ADD_STYLE_NAME ""
PIXEL_SIZE 18
POINT_SIZE 170
RESOLUTION_X 75
RESOLUTION_Y 75
SPACING "P"
AVERAGE_WIDTH 93
CHARSET_REGISTRY "ISO8859"
CHARSET_ENCODING "1"
FONTNAME_REGISTRY ""
CHARSET_COLLECTIONS "ISOLatin1Encoding"
FONT_NAME "BenguiatGothicStd-Medium"
FACE_NAME "ITC Benguiat Gothic Std Medium"
COPYRIGHT "Copyright 1990, 1995 , 2002Adobe Systems Incorporated. All Rights Reserved. ITC Benguiat Gothic is a registered trademark of International Typeface Corporation."
FONT_VERSION "001.001"
FONT_ASCENT 12
FONT_DESCENT 6
UNDERLINE_POSITION -2
UNDERLINE_THICKNESS 1
X_HEIGHT 9
CAP_HEIGHT 12
RAW_ASCENT 691
RAW_DESCENT 309
NORM_SPACE 5
RELATIVE_WEIGHT 50
RELATIVE_SETWIDTH 50
SUPERSCRIPT_X 0
SUPERSCRIPT_Y 6
SUPERSCRIPT_SIZE 10
SUBSCRIPT_X 0
SUBSCRIPT_Y 1
SUBSCRIPT_SIZE 10
FIGURE_WIDTH 11
AVG_LOWERCASE_WIDTH 89
AVG_UPPERCASE_WIDTH 108
ENDPROPERTIES
CHARS 253
STARTCHAR space
ENCODING 32
SWIDTH 305 0
DWIDTH 5 0
BBX 1 1 0 0
BITMAP
00
ENDCHAR
STARTCHAR exclam
ENCODING 33
SWIDTH 278 0
DWIDTH 5 0
BBX 1 13 2 0
BITMAP
80
80
80
80
80
80
80
80
80
80
00
80
80
ENDCHAR
STARTCHAR quotedbl
ENCODING 34
SWIDTH 333 0
DWIDTH 6 0
BBX 4 5 1 8
BITMAP
90
90
90
90
90
ENDCHAR
STARTCHAR numbersign
ENCODING 35
SWIDTH 611 0
DWIDTH 11 0
BBX 9 13 1 0
BITMAP
1300
1300
1200
1200
7F80
3200
2200
2200
FF00
2600
2400
2400
6400
ENDCHAR
STARTCHAR dollar
ENCODING 36
SWIDTH 611 0
DWIDTH 11 0
BBX 8 15 1 -1
BITMAP
10
10
10
FE
80
F0
7E
13
11
11
13
1E
FC
10
10
ENDCHAR
STARTCHAR percent
ENCODING 37
SWIDTH 833 0
DWIDTH 15 0
BBX 13 13 1 0
BITMAP
7040
C880
8C80
8D80
C900
7B00
0200
06F0
0498
0D88
0988
1898
1070
ENDCHAR
STARTCHAR ampersand
ENCODING 38
SWIDTH 778 0
DWIDTH 14 0
BBX 13 13 1 0
BITMAP
1E00
3600
2300
2340
3260
7E60
CC60
C660
C340
C1C0
C1E0
77B0
3E18
ENDCHAR
STARTCHAR quotesingle
ENCODING 39
SWIDTH 222 0
DWIDTH 4 0
BBX 2 5 1 8
BITMAP
C0
C0
C0
C0
C0
ENDCHAR
STARTCHAR parenleft
ENCODING 40
SWIDTH 389 0
DWIDTH 7 0
BBX 5 17 1 -4
BITMAP
08
18
30
20
60
40
C0
C0
C0
C0
C0
40
60
60
30
10
18
ENDCHAR
STARTCHAR parenright
ENCODING 41
SWIDTH 389 0
DWIDTH 7 0
BBX 5 17 1 -4
BITMAP
80
C0
60
20
30
10
10
18
18
18
18
10
30
30
60
40
C0
ENDCHAR
STARTCHAR asterisk
ENCODING 42
SWIDTH 333 0
DWIDTH 6 0
BBX 4 5 1 8
BITMAP
60
D0
60
D0
60
ENDCHAR
STARTCHAR plus
ENCODING 43
SWIDTH 600 0
DWIDTH 11 0
BBX 9 10 1 0
BITMAP
0800
0800
0800
0800
0800
FF80
0800
0800
0800
0800
ENDCHAR
STARTCHAR comma
ENCODING 44
SWIDTH 305 0
DWIDTH 5 0
BBX 3 5 1 -2
BITMAP
60
60
40
C0
80
ENDCHAR
STARTCHAR hyphen
ENCODING 45
SWIDTH 333 0
DWIDTH 6 0
BBX 4 1 1 4
BITMAP
F0
ENDCHAR
STARTCHAR period
ENCODING 46
SWIDTH 305 0
DWIDTH 5 0
BBX 2 2 2 0
BITMAP
C0
C0
ENDCHAR
STARTCHAR slash
ENCODING 47
SWIDTH 278 0
DWIDTH 5 0
BBX 7 13 -1 0
BITMAP
06
04
0C
0C
08
18
10
30
20
60
60
40
C0
ENDCHAR
STARTCHAR zero
ENCODING 48
SWIDTH 611 0
DWIDTH 11 0
BBX 9 13 1 0
BITMAP
1C00
7700
6300
C180
C180
8080
8080
8080
C180
C180
6300
7700
1C00
ENDCHAR
STARTCHAR one
ENCODING 49
SWIDTH 611 0
DWIDTH 11 0
BBX 6 13 3 0
BITMAP
70
F0
30
30
30
30
30
30
30
30
30
30
FC
ENDCHAR
STARTCHAR two
ENCODING 50
SWIDTH 611 0
DWIDTH 11 0
BBX 9 13 1 0
BITMAP
FE00
0700
0300
0100
0300
0700
0E00
3800
7000
C000
C000
C000
FF80
ENDCHAR
STARTCHAR three
ENCODING 51
SWIDTH 611 0
DWIDTH 11 0
BBX 9 13 1 0
BITMAP
FE00
0600
0C00
3800
7C00
0700
0300
0180
0180
0180
0100
0700
FC00
ENDCHAR
STARTCHAR four
ENCODING 52
SWIDTH 611 0
DWIDTH 11 0
BBX 9 13 1 0
BITMAP
0600
0E00
1A00
3200
6200
4200
C200
C200
8200
FF80
0200
0200
0200
ENDCHAR
STARTCHAR five
ENCODING 53
SWIDTH 611 0
DWIDTH 11 0
BBX 9 13 1 0
BITMAP
7F00
4000
4000
7C00
7F00
0300
0180
0180
0180
0180
0180
0700
FE00
ENDCHAR
STARTCHAR six
ENCODING 54
SWIDTH 611 0
DWIDTH 11 0
BBX 9 13 1 0
BITMAP
1F80
7800
6000
C000
DE00
BF00
E180
C080
C080
C080
6180
7700
3E00
ENDCHAR
STARTCHAR seven
ENCODING 55
SWIDTH 611 0
DWIDTH 11 0
BBX 8 13 1 0
BITMAP
FF
01
03
03
06
06
0C
08
18
10
30
30
30
ENDCHAR
STARTCHAR eight
ENCODING 56
SWIDTH 611 0
DWIDTH 11 0
BBX 9 13 1 0
BITMAP
3E00
7700
C100
C100
6300
3E00
6700
C180
C180
C180
C180
6300
3E00
ENDCHAR
STARTCHAR nine
ENCODING 57
SWIDTH 611 0
DWIDTH 11 0
BBX 9 13 1 0
BITMAP
3E00
7F00
C300
8180
8180
8180
C380
7680
3D80
0180
0300
0F00
FC00
ENDCHAR
STARTCHAR colon
ENCODING 58
SWIDTH 305 0
DWIDTH 5 0
BBX 2 8 2 0
BITMAP
C0
C0
00
00
00
00
C0
C0
ENDCHAR
STARTCHAR semicolon
ENCODING 59
SWIDTH 305 0
DWIDTH 5 0
BBX 3 10 1 -3
BITMAP
60
60
00
00
00
60
40
C0
80
80
ENDCHAR
STARTCHAR less
ENCODING 60
SWIDTH 600 0
DWIDTH 11 0
BBX 9 10 1 0
BITMAP
0080
0380
0E00
3800
E000
E000
3800
0E00
0380
0080
ENDCHAR
STARTCHAR equal
ENCODING 61
SWIDTH 600 0
DWIDTH 11 0
BBX 9 5 1 2
BITMAP
FF80
0000
0000
0000
FF80
ENDCHAR
STARTCHAR greater
ENCODING 62
SWIDTH 600 0
DWIDTH 11 0
BBX 9 10 1 0
BITMAP
8000
E000
3800
0E00
0380
0380
0E00
3800
E000
8000
ENDCHAR
STARTCHAR question
ENCODING 63
SWIDTH 500 0
DWIDTH 9 0
BBX 8 13 0 0
BITMAP
FE
07
03
03
03
06
0C
18
10
10
00
30
30
ENDCHAR
STARTCHAR at
ENCODING 64
SWIDTH 800 0
DWIDTH 14 0
BBX 12 13 1 0
BITMAP
0F80
38E0
6030
4750
CDD0
9890
9090
9190
D1A0
5FC0
6030
3860
0F80
ENDCHAR
STARTCHAR A
ENCODING 65
SWIDTH 667 0
DWIDTH 12 0
BBX 10 13 1 0
BITMAP
0C00
1E00
1600
3300
2300
6180
7D80
4780
C1C0
C0C0
80C0
8040
8040
ENDCHAR
STARTCHAR B
ENCODING 66
SWIDTH 611 0
DWIDTH 11 0
BBX 9 13 1 0
BITMAP
FF00
C380
C180
F900
FF00
C300
C180
C180
C080
C080
C180
C380
FF00
ENDCHAR
STARTCHAR C
ENCODING 67
SWIDTH 611 0
DWIDTH 11 0
BBX 10 13 1 0
BITMAP
3F80
7800
C000
C000
C000
C000
C000
C000
C000
6000
3000
1F00
07C0
ENDCHAR
STARTCHAR D
ENCODING 68
SWIDTH 667 0
DWIDTH 12 0
BBX 10 13 1 0
BITMAP
F800
FE00
C300
C180
C0C0
C0C0
C0C0
C040
C040
C0C0
C0C0
C780
FF00
ENDCHAR
STARTCHAR E
ENCODING 69
SWIDTH 556 0
DWIDTH 10 0
BBX 8 13 1 0
BITMAP
FF
C0
C0
FF
C0
C0
C0
C0
C0
C0
C0
C0
FF
ENDCHAR
STARTCHAR F
ENCODING 70
SWIDTH 500 0
DWIDTH 9 0
BBX 8 13 1 0
BITMAP
FF
C0
C0
FF
C0
C0
C0
C0
C0
C0
C0
C0
C0
ENDCHAR
STARTCHAR G
ENCODING 71
SWIDTH 667 0
DWIDTH 12 0
BBX 10 13 1 0
BITMAP
3FC0
7000
C000
C7C0
80C0
80C0
C0C0
C0C0
C0C0
60C0
30C0
1FC0
07C0
ENDCHAR
STARTCHAR H
ENCODING 72
SWIDTH 611 0
DWIDTH 11 0
BBX 9 13 1 0
BITMAP
C180
C180
C180
FF80
C180
C180
C180
C180
C180
C180
C180
C180
C180
ENDCHAR
STARTCHAR I
ENCODING 73
SWIDTH 222 0
DWIDTH 4 0
BBX 2 13 1 0
BITMAP
C0
C0
C0
C0
C0
C0
C0
C0
C0
C0
C0
C0
C0
ENDCHAR
STARTCHAR J
ENCODING 74
SWIDTH 444 0
DWIDTH 8 0
BBX 8 13 -1 0
BITMAP
03
03
03
03
03
03
03
03
03
03
02
FE
7C
ENDCHAR
STARTCHAR K
ENCODING 75
SWIDTH 611 0
DWIDTH 11 0
BBX 10 13 1 0
BITMAP
C180
C180
C300
C600
FC00
CE00
C700
C300
C180
C180
C080
C0C0
C0C0
ENDCHAR
STARTCHAR L
ENCODING 76
SWIDTH 444 0
DWIDTH 8 0
BBX 7 13 1 0
BITMAP
40
C0
C0
C0
C0
C0
C0
C0
C0
C0
C0
C0
FE
ENDCHAR
STARTCHAR M
ENCODING 77
SWIDTH 722 0
DWIDTH 13 0
BBX 11 13 1 0
BITMAP
60C0
60C0
71C0
5140
5B40
4E40
CE60
C060
C060
C060
C060
C060
C060
ENDCHAR
STARTCHAR N
ENCODING 78
SWIDTH 611 0
DWIDTH 11 0
BBX 9 13 1 0
BITMAP
C180
E180
F180
D980
CF80
C380
C180
C180
C180
C180
C180
C180
C180
ENDCHAR
STARTCHAR O
ENCODING 79
SWIDTH 722 0
DWIDTH 13 0
BBX 11 13 1 0
BITMAP
1F00
3B80
60C0
C060
C060
C060
C060
C060
C060
C060
60C0
3B80
1F00
ENDCHAR
STARTCHAR P
ENCODING 80
SWIDTH 556 0
DWIDTH 10 0
BBX 9 13 1 0
BITMAP
FF00
C380
C180
C180
C700
FE00
F000
C000
C000
C000
C000
C000
C000
ENDCHAR
STARTCHAR Q
ENCODING 81
SWIDTH 722 0
DWIDTH 13 0
BBX 11 15 1 -2
BITMAP
1F00
3B80
60C0
C060
C060
C060
C060
C060
DC60
DE60
62C0
3B80
1F80
01C0
00E0
ENDCHAR
STARTCHAR R
ENCODING 82
SWIDTH 667 0
DWIDTH 12 0
BBX 10 13 1 0
BITMAP
FF00
C380
C080
F980
FF80
C700
C180
C180
C0C0
C0C0
C040
C040
C040
ENDCHAR
STARTCHAR S
ENCODING 83
SWIDTH 611 0
DWIDTH 11 0
BBX 9 13 1 0
BITMAP
7F00
E000
8000
C000
FE00
0F80
0180
0080
0080
0080
0180
0F00
FE00
ENDCHAR
STARTCHAR T
ENCODING 84
SWIDTH 500 0
DWIDTH 9 0
BBX 9 13 0 0
BITMAP
FF80
0800
0800
0800
0800
0800
0800
0800
0800
0800
0800
0800
0800
ENDCHAR
STARTCHAR U
ENCODING 85
SWIDTH 611 0
DWIDTH 11 0
BBX 9 13 1 0
BITMAP
4100
4100
C180
C180
C180
C180
8080
8080
8080
8080
C180
7F00
3E00
ENDCHAR
STARTCHAR V
ENCODING 86
SWIDTH 611 0
DWIDTH 11 0
BBX 10 13 0 0
BITMAP
4040
C040
4040
60C0
60C0
60C0
2080
3180
3180
1100
1B00
0E00
0400
ENDCHAR
STARTCHAR W
ENCODING 87
SWIDTH 833 0
DWIDTH 15 0
BBX 13 13 1 0
BITMAP
8208
8208
8608
8708
C718
C718
C518
C510
4D90
6DB0
68B0
38E0
3060
ENDCHAR
STARTCHAR X
ENCODING 88
SWIDTH 611 0
DWIDTH 11 0
BBX 9 13 1 0
BITMAP
C180
C180
6300
3600
1C00
3C00
3600
6300
C180
C180
C180
8080
8080
ENDCHAR
STARTCHAR Y
ENCODING 89
SWIDTH 556 0
DWIDTH 10 0
BBX 10 13 0 0
BITMAP
C0C0
4080
6180
6180
3300
1E00
0C00
0C00
0C00
0C00
0C00
0C00
0C00
ENDCHAR
STARTCHAR Z
ENCODING 90
SWIDTH 500 0
DWIDTH 9 0
BBX 7 13 1 0
BITMAP
FE
02
06
06
0C
1C
18
30
60
C0
C0
80
FE
ENDCHAR
STARTCHAR bracketleft
ENCODING 91
SWIDTH 389 0
DWIDTH 7 0
BBX 4 17 2 -4
BITMAP
F0
80
80
80
80
80
80
80
80
80
80
80
80
80
80
80
F0
ENDCHAR
STARTCHAR backslash
ENCODING 92
SWIDTH 278 0
DWIDTH 5 0
BBX 7 13 -1 0
BITMAP
C0
40
60
60
20
30
10
18
08
0C
0C
04
06
ENDCHAR
STARTCHAR bracketright
ENCODING 93
SWIDTH 389 0
DWIDTH 7 0
BBX 4 17 1 -4
BITMAP
F0
10
10
10
10
10
10
10
10
10
10
10
10
10
10
10
F0
ENDCHAR
STARTCHAR asciicircum
ENCODING 94
SWIDTH 600 0
DWIDTH 11 0
BBX 9 8 1 5
BITMAP
1800
1C00
1400
3600
2200
6300
4100
C180
ENDCHAR
STARTCHAR underscore
ENCODING 95
SWIDTH 500 0
DWIDTH 9 0
BBX 9 1 0 -2
BITMAP
FF80
ENDCHAR
STARTCHAR grave
ENCODING 96
SWIDTH 222 0
DWIDTH 4 0
BBX 4 2 0 11
BITMAP
C0
F0
ENDCHAR
STARTCHAR a
ENCODING 97
SWIDTH 500 0
DWIDTH 9 0
BBX 8 10 0 0
BITMAP
7E
07
03
1F
73
43
C3
C3
67
3D
ENDCHAR
STARTCHAR b
ENCODING 98
SWIDTH 556 0
DWIDTH 10 0
BBX 8 13 1 0
BITMAP
C0
C0
C0
F8
FE
C6
C3
C1
C1
C1
C3
CF
FC
ENDCHAR
STARTCHAR c
ENCODING 99
SWIDTH 500 0
DWIDTH 9 0
BBX 8 10 1 0
BITMAP
3E
E0
C0
80
80
C0
C0
60
78
1F
ENDCHAR
STARTCHAR d
ENCODING 100
SWIDTH 556 0
DWIDTH 10 0
BBX 8 13 1 0
BITMAP
03
03
03
1F
7F
63
C3
83
83
83
C3
F3
3F
ENDCHAR
STARTCHAR e
ENCODING 101
SWIDTH 556 0
DWIDTH 10 0
BBX 8 10 1 0
BITMAP
3C
66
C3
C1
FF
80
C0
C0
60
3F
ENDCHAR
STARTCHAR f
ENCODING 102
SWIDTH 333 0
DWIDTH 6 0
BBX 6 13 1 0
BITMAP
3C
70
60
F8
60
60
60
60
60
60
60
60
60
ENDCHAR
STARTCHAR g
ENCODING 103
SWIDTH 556 0
DWIDTH 10 0
BBX 10 14 0 -4
BITMAP
0F80
3980
6180
6180
4180
4180
4180
6180
7180
1FC0
00C0
00C0
F180
3F00
ENDCHAR
STARTCHAR h
ENCODING 104
SWIDTH 556 0
DWIDTH 10 0
BBX 8 13 1 0
BITMAP
C0
C0
C0
DC
FE
C3
C3
C3
C3
C3
C3
C3
C3
ENDCHAR
STARTCHAR i
ENCODING 105
SWIDTH 222 0
DWIDTH 4 0
BBX 2 13 1 0
BITMAP
C0
C0
00
C0
C0
C0
C0
C0
C0
C0
C0
C0
C0
ENDCHAR
STARTCHAR j
ENCODING 106
SWIDTH 222 0
DWIDTH 4 0
BBX 6 17 -3 -4
BITMAP
0C
0C
00
0C
0C
0C
0C
0C
0C
0C
0C
0C
0C
0C
0C
18
F0
ENDCHAR
STARTCHAR k
ENCODING 107
SWIDTH 500 0
DWIDTH 9 0
BBX 8 13 1 0
BITMAP
C0
C0
C0
C2
C6
CC
F8
DC
C6
C2
C3
C3
C3
ENDCHAR
STARTCHAR l
ENCODING 108
SWIDTH 222 0
DWIDTH 4 0
BBX 2 13 1 0
BITMAP
C0
C0
C0
C0
C0
C0
C0
C0
C0
C0
C0
C0
C0
ENDCHAR
STARTCHAR m
ENCODING 109
SWIDTH 889 0
DWIDTH 16 0
BBX 14 10 1 0
BITMAP
DC70
FFF8
C30C
C30C
C30C
C30C
C30C
C30C
C30C
C30C
ENDCHAR
STARTCHAR n
ENCODING 110
SWIDTH 556 0
DWIDTH 10 0
BBX 8 10 1 0
BITMAP
DC
FE
C3
C3
C3
C3
C3
C3
C3
C3
ENDCHAR
STARTCHAR o
ENCODING 111
SWIDTH 556 0
DWIDTH 10 0
BBX 8 10 1 0
BITMAP
3C
66
C3
83
81
81
81
C3
66
3C
ENDCHAR
STARTCHAR p
ENCODING 112
SWIDTH 556 0
DWIDTH 10 0
BBX 8 14 1 -4
BITMAP
F8
DE
C6
C3
C1
C1
C1
C3
CE
FC
C0
C0
C0
C0
ENDCHAR
STARTCHAR q
ENCODING 113
SWIDTH 556 0
DWIDTH 10 0
BBX 8 14 1 -4
BITMAP
1F
7B
63
C3
83
83
83
C3
73
3F
03
03
03
03
ENDCHAR
STARTCHAR r
ENCODING 114
SWIDTH 333 0
DWIDTH 6 0
BBX 5 10 1 0
BITMAP
F8
F0
C0
C0
C0
C0
C0
C0
C0
C0
ENDCHAR
STARTCHAR s
ENCODING 115
SWIDTH 500 0
DWIDTH 9 0
BBX 7 10 1 0
BITMAP
7E
C0
80
FC
3E
02
02
02
0E
FC
ENDCHAR
STARTCHAR t
ENCODING 116
SWIDTH 333 0
DWIDTH 6 0
BBX 5 12 1 0
BITMAP
60
60
F8
60
60
60
60
60
60
60
60
38
ENDCHAR
STARTCHAR u
ENCODING 117
SWIDTH 556 0
DWIDTH 10 0
BBX 8 10 1 0
BITMAP
C3
C3
C3
C3
C3
C3
C3
C3
6F
3B
ENDCHAR
STARTCHAR v
ENCODING 118
SWIDTH 500 0
DWIDTH 9 0
BBX 9 10 0 0
BITMAP
C180
C180
4100
4100
6300
2200
3600
3600
1C00
0800
ENDCHAR
STARTCHAR w
ENCODING 119
SWIDTH 722 0
DWIDTH 13 0
BBX 11 10 1 0
BITMAP
8420
8420
8420
8E20
8A20
CA60
DB60
5B40
71C0
2080
ENDCHAR
STARTCHAR x
ENCODING 120
SWIDTH 500 0
DWIDTH 9 0
BBX 8 10 0 0
BITMAP
41
63
63
36
1C
3E
63
63
C1
41
ENDCHAR
STARTCHAR y
ENCODING 121
SWIDTH 500 0
DWIDTH 9 0
BBX 8 14 1 -4
BITMAP
83
83
83
C2
C6
46
64
6C
38
38
30
30
60
40
ENDCHAR
STARTCHAR z
ENCODING 122
SWIDTH 444 0
DWIDTH 8 0
BBX 8 10 0 0
BITMAP
7E
02
06
0E
1C
38
70
60
C0
FF
ENDCHAR
STARTCHAR braceleft
ENCODING 123
SWIDTH 389 0
DWIDTH 7 0
BBX 5 17 1 -4
BITMAP
38
60
60
60
60
60
60
40
80
40
60
60
60
60
60
60
38
ENDCHAR
STARTCHAR bar
ENCODING 124
SWIDTH 222 0
DWIDTH 4 0
BBX 2 18 1 -4
BITMAP
C0
C0
C0
C0
C0
C0
C0
C0
C0
C0
C0
C0
C0
C0
C0
C0
C0
C0
ENDCHAR
STARTCHAR braceright
ENCODING 125
SWIDTH 389 0
DWIDTH 7 0
BBX 5 17 1 -4
BITMAP
E0
30
30
30
30
30
30
10
08
10
30
30
30
30
30
30
E0
ENDCHAR
STARTCHAR asciitilde
ENCODING 126
SWIDTH 600 0
DWIDTH 11 0
BBX 9 3 1 3
BITMAP
7000
DD80
0700
ENDCHAR
STARTCHAR uni00A0
ENCODING 160
SWIDTH 305 0
DWIDTH 5 0
BBX 1 1 0 0
BITMAP
00
ENDCHAR
STARTCHAR exclamdown
ENCODING 161
SWIDTH 278 0
DWIDTH 5 0
BBX 1 13 2 -4
BITMAP
80
80
00
80
80
80
80
80
80
80
80
80
80
ENDCHAR
STARTCHAR cent
ENCODING 162
SWIDTH 611 0
DWIDTH 11 0
BBX 7 13 2 0
BITMAP
18
18
18
7E
D8
98
98
D8
78
3E
18
18
18
ENDCHAR
STARTCHAR sterling
ENCODING 163
SWIDTH 611 0
DWIDTH 11 0
BBX 10 13 0 0
BITMAP
07C0
0FC0
1800
1800
1800
3F80
1800
1800
1800
1800
1800
7C80
CF80
ENDCHAR
STARTCHAR currency
ENCODING 164
SWIDTH 611 0
DWIDTH 11 0
BBX 9 9 1 2
BITMAP
BE80
7700
C100
C180
C180
C180
C180
7700
BE80
ENDCHAR
STARTCHAR yen
ENCODING 165
SWIDTH 611 0
DWIDTH 11 0
BBX 9 13 1 0
BITMAP
8180
C180
C100
6300
F780
3E00
1C00
FF80
0800
0800
0800
0800
0800
ENDCHAR
STARTCHAR brokenbar
ENCODING 166
SWIDTH 222 0
DWIDTH 4 0
BBX 2 15 1 -3
BITMAP
C0
C0
C0
C0
C0
C0
00
00
00
C0
C0
C0
C0
C0
C0
ENDCHAR
STARTCHAR section
ENCODING 167
SWIDTH 500 0
DWIDTH 9 0
BBX 7 13 1 0
BITMAP
7C
C0
C0
F0
FC
8E
E2
7E
0E
06
06
0E
FC
ENDCHAR
STARTCHAR dieresis
ENCODING 168
SWIDTH 222 0
DWIDTH 4 0
BBX 6 2 -1 11
BITMAP
CC
CC
ENDCHAR
STARTCHAR copyright
ENCODING 169
SWIDTH 800 0
DWIDTH 14 0
BBX 12 13 1 0
BITMAP
0F80
38C0
6060
4F30
D890
9010
9010
9010
D890
4F30
6020
30C0
0F80
ENDCHAR
STARTCHAR ordfeminine
ENCODING 170
SWIDTH 300 0
DWIDTH 5 0
BBX 5 7 0 6
BITMAP
F8
08
38
C8
88
88
78
ENDCHAR
STARTCHAR guillemotleft
ENCODING 171
SWIDTH 444 0
DWIDTH 8 0
BBX 6 7 1 1
BITMAP
6C
48
D8
98
D8
48
4C
ENDCHAR
STARTCHAR logicalnot
ENCODING 172
SWIDTH 600 0
DWIDTH 11 0
BBX 9 5 1 2
BITMAP
FF80
0180
0180
0180
0180
ENDCHAR
STARTCHAR uni00AD
ENCODING 173
SWIDTH 333 0
DWIDTH 6 0
BBX 4 1 1 4
BITMAP
F0
ENDCHAR
STARTCHAR registered
ENCODING 174
SWIDTH 800 0
DWIDTH 14 0
BBX 12 13 1 0
BITMAP
0F80
30C0
6060
4FB0
C890
8890
8F90
8B10
C910
48B0
6020
30C0
0F80
ENDCHAR
STARTCHAR macron
ENCODING 175
SWIDTH 222 0
DWIDTH 4 0
BBX 4 1 0 11
BITMAP
F0
ENDCHAR
STARTCHAR degree
ENCODING 176
SWIDTH 400 0
DWIDTH 7 0
BBX 5 5 1 8
BITMAP
70
C8
88
C8
70
ENDCHAR
STARTCHAR plusminus
ENCODING 177
SWIDTH 600 0
DWIDTH 11 0
BBX 9 10 1 0
BITMAP
0800
0800
0800
FF80
0800
0800
0800
0000
0000
FF80
ENDCHAR
STARTCHAR twosuperior
ENCODING 178
SWIDTH 366 0
DWIDTH 7 0
BBX 6 8 0 5
BITMAP
78
0C
0C
18
30
40
C0
FC
ENDCHAR
STARTCHAR threesuperior
ENCODING 179
SWIDTH 366 0
DWIDTH 7 0
BBX 6 8 0 5
BITMAP
F8
30
78
0C
04
04
0C
F8
ENDCHAR
STARTCHAR acute
ENCODING 180
SWIDTH 222 0
DWIDTH 4 0
BBX 4 2 0 11
BITMAP
30
F0
ENDCHAR
STARTCHAR mu
ENCODING 181
SWIDTH 556 0
DWIDTH 10 0
BBX 8 14 1 -4
BITMAP
C3
C3
C3
C3
C3
C3
C3
C3
EF
FB
C0
C0
C0
C0
ENDCHAR
STARTCHAR paragraph
ENCODING 182
SWIDTH 600 0
DWIDTH 11 0
BBX 8 13 1 0
BITMAP
7F
FB
FB
FB
FB
FB
3B
0B
0B
0B
0B
0B
0B
ENDCHAR
STARTCHAR periodcentered
ENCODING 183
SWIDTH 305 0
DWIDTH 5 0
BBX 2 2 2 4
BITMAP
C0
C0
ENDCHAR
STARTCHAR cedilla
ENCODING 184
SWIDTH 222 0
DWIDTH 4 0
BBX 4 4 0 -4
BITMAP
40
70
10
F0
ENDCHAR
STARTCHAR onesuperior
ENCODING 185
SWIDTH 366 0
DWIDTH 7 0
BBX 4 8 1 5
BITMAP
E0
20
20
20
20
20
20
F0
ENDCHAR
STARTCHAR ordmasculine
ENCODING 186
SWIDTH 334 0
DWIDTH 6 0
BBX 6 7 0 6
BITMAP
70
48
84
84
84
48
78
ENDCHAR
STARTCHAR guillemotright
ENCODING 187
SWIDTH 444 0
DWIDTH 8 0
BBX 6 7 1 1
BITMAP
D8
48
6C
64
6C
48
D8
ENDCHAR
STARTCHAR onequarter
ENCODING 188
SWIDTH 916 0
DWIDTH 16 0
BBX 14 13 1 0
BITMAP
E030
2020
2060
20C0
2080
2188
2338
F268
0648
0C88
08FC
1808
1008
ENDCHAR
STARTCHAR onehalf
ENCODING 189
SWIDTH 916 0
DWIDTH 16 0
BBX 14 13 1 0
BITMAP
E020
6060
6040
6080
6180
6178
620C
F604
040C
0818
1860
1040
207C
ENDCHAR
STARTCHAR threequarters
ENCODING 190
SWIDTH 916 0
DWIDTH 16 0
BBX 15 13 1 0
BITMAP
F810
2030
7060
0840
08C0
0988
093C
F32C
064C
044C
0C7E
180C
100C
ENDCHAR
STARTCHAR questiondown
ENCODING 191
SWIDTH 500 0
DWIDTH 9 0
BBX 8 13 1 -4
BITMAP
08
0C
00
08
08
18
30
60
C0
C0
C0
E0
7F
ENDCHAR
STARTCHAR Agrave
ENCODING 192
SWIDTH 667 0
DWIDTH 12 0
BBX 10 16 1 0
BITMAP
1800
1E00
0000
0C00
1E00
1600
3300
2300
6180
7D80
4780
C1C0
C0C0
80C0
8040
8040
ENDCHAR
STARTCHAR Aacute
ENCODING 193
SWIDTH 667 0
DWIDTH 12 0
BBX 10 16 1 0
BITMAP
0600
1E00
0000
0C00
1E00
1600
3300
2300
6180
7D80
4780
C1C0
C0C0
80C0
8040
8040
ENDCHAR
STARTCHAR Acircumflex
ENCODING 194
SWIDTH 667 0
DWIDTH 12 0
BBX 10 17 1 0
BITMAP
0C00
1E00
3300
0000
0C00
1E00
1600
3300
2300
6180
7D80
4780
C1C0
C0C0
80C0
8040
8040
ENDCHAR
STARTCHAR Atilde
ENCODING 195
SWIDTH 667 0
DWIDTH 12 0
BBX 10 16 1 0
BITMAP
1900
2F00
0000
0C00
1E00
1600
3300
2300
6180
7D80
4780
C1C0
C0C0
80C0
8040
8040
ENDCHAR
STARTCHAR Adieresis
ENCODING 196
SWIDTH 667 0
DWIDTH 12 0
BBX 10 16 1 0
BITMAP
3300
3300
0000
0C00
1E00
1600
3300
2300
6180
7D80
4780
C1C0
C0C0
80C0
8040
8040
ENDCHAR
STARTCHAR Aring
ENCODING 197
SWIDTH 667 0
DWIDTH 12 0
BBX 10 17 1 0
BITMAP
0C00
1200
0C00
0000
0C00
1E00
1600
3300
2300
6180
7D80
4780
C1C0
C0C0
80C0
8040
8040
ENDCHAR
STARTCHAR AE
ENCODING 198
SWIDTH 944 0
DWIDTH 17 0
BBX 16 13 0 0
BITMAP
00FF
03C0
0640
0C7F
19FC
1740
3C40
3840
7040
6040
4040
C040
C07F
ENDCHAR
STARTCHAR Ccedilla
ENCODING 199
SWIDTH 611 0
DWIDTH 11 0
BBX 10 17 1 -4
BITMAP
3F80
7800
C000
C000
C000
C000
C000
C000
C000
6000
3000
1F00
07C0
0400
0700
0300
0E00
ENDCHAR
STARTCHAR Egrave
ENCODING 200
SWIDTH 556 0
DWIDTH 10 0
BBX 8 16 1 0
BITMAP
30
1E
00
FF
C0
C0
FF
C0
C0
C0
C0
C0
C0
C0
C0
FF
ENDCHAR
STARTCHAR Eacute
ENCODING 201
SWIDTH 556 0
DWIDTH 10 0
BBX 8 16 1 0
BITMAP
0C
38
00
FF
C0
C0
FF
C0
C0
C0
C0
C0
C0
C0
C0
FF
ENDCHAR
STARTCHAR Ecircumflex
ENCODING 202
SWIDTH 556 0
DWIDTH 10 0
BBX 8 17 1 0
BITMAP
18
3C
26
00
FF
C0
C0
FF
C0
C0
C0
C0
C0
C0
C0
C0
FF
ENDCHAR
STARTCHAR Edieresis
ENCODING 203
SWIDTH 556 0
DWIDTH 10 0
BBX 8 16 1 0
BITMAP
66
66
00
FF
C0
C0
FF
C0
C0
C0
C0
C0
C0
C0
C0
FF
ENDCHAR
STARTCHAR Igrave
ENCODING 204
SWIDTH 222 0
DWIDTH 4 0
BBX 4 16 0 0
BITMAP
C0
F0
00
60
60
60
60
60
60
60
60
60
60
60
60
60
ENDCHAR
STARTCHAR Iacute
ENCODING 205
SWIDTH 222 0
DWIDTH 4 0
BBX 4 16 0 0
BITMAP
30
E0
00
60
60
60
60
60
60
60
60
60
60
60
60
60
ENDCHAR
STARTCHAR Icircumflex
ENCODING 206
SWIDTH 222 0
DWIDTH 4 0
BBX 6 17 -1 0
BITMAP
30
78
CC
00
30
30
30
30
30
30
30
30
30
30
30
30
30
ENDCHAR
STARTCHAR Idieresis
ENCODING 207
SWIDTH 222 0
DWIDTH 4 0
BBX 6 16 -1 0
BITMAP
CC
CC
00
30
30
30
30
30
30
30
30
30
30
30
30
30
ENDCHAR
STARTCHAR Eth
ENCODING 208
SWIDTH 667 0
DWIDTH 12 0
BBX 11 13 0 0
BITMAP
7C00
7F00
6180
60C0
6060
FC60
FC60
6020
6020
6060
6060
63C0
7F80
ENDCHAR
STARTCHAR Ntilde
ENCODING 209
SWIDTH 611 0
DWIDTH 11 0
BBX 9 16 1 0
BITMAP
3900
4E00
0000
C180
E180
F180
D980
CF80
C380
C180
C180
C180
C180
C180
C180
C180
ENDCHAR
STARTCHAR Ograve
ENCODING 210
SWIDTH 722 0
DWIDTH 13 0
BBX 11 16 1 0
BITMAP
1800
0F00
0000
1F00
3B80
60C0
C060
C060
C060
C060
C060
C060
C060
60C0
3B80
1F00
ENDCHAR
STARTCHAR Oacute
ENCODING 211
SWIDTH 722 0
DWIDTH 13 0
BBX 11 16 1 0
BITMAP
0300
1E00
0000
1F00
3B80
60C0
C060
C060
C060
C060
C060
C060
C060
60C0
3B80
1F00
ENDCHAR
STARTCHAR Ocircumflex
ENCODING 212
SWIDTH 722 0
DWIDTH 13 0
BBX 11 17 1 0
BITMAP
0400
0A00
1B00
0000
1F00
3B80
60C0
C060
C060
C060
C060
C060
C060
C060
60C0
3B80
1F00
ENDCHAR
STARTCHAR Otilde
ENCODING 213
SWIDTH 722 0
DWIDTH 13 0
BBX 11 16 1 0
BITMAP
1880
2700
0000
1F00
3B80
60C0
C060
C060
C060
C060
C060
C060
C060
60C0
3B80
1F00
ENDCHAR
STARTCHAR Odieresis
ENCODING 214
SWIDTH 722 0
DWIDTH 13 0
BBX 11 16 1 0
BITMAP
1100
1100
0000
1F00
3B80
60C0
C060
C060
C060
C060
C060
C060
C060
60C0
3B80
1F00
ENDCHAR
STARTCHAR multiply
ENCODING 215
SWIDTH 600 0
DWIDTH 11 0
BBX 9 10 1 0
BITMAP
8100
C180
6300
3600
1C00
1C00
3600
6300
C180
8100
ENDCHAR
STARTCHAR Oslash
ENCODING 216
SWIDTH 722 0
DWIDTH 13 0
BBX 11 16 1 -2
BITMAP
0080
1F80
3B80
61C0
C260
C260
C660
C460
CC60
C860
D860
70C0
3B80
3F00
6000
4000
ENDCHAR
STARTCHAR Ugrave
ENCODING 217
SWIDTH 611 0
DWIDTH 11 0
BBX 9 16 1 0
BITMAP
3800
1E00
0000
4100
4100
C180
C180
C180
C180
8080
8080
8080
8080
C180
7F00
3E00
ENDCHAR
STARTCHAR Uacute
ENCODING 218
SWIDTH 611 0
DWIDTH 11 0
BBX 9 16 1 0
BITMAP
0E00
3C00
0000
4100
4100
C180
C180
C180
C180
8080
8080
8080
8080
C180
7F00
3E00
ENDCHAR
STARTCHAR Ucircumflex
ENCODING 219
SWIDTH 611 0
DWIDTH 11 0
BBX 9 17 1 0
BITMAP
0800
1400
3600
0000
4100
4100
C180
C180
C180
C180
8080
8080
8080
8080
C180
7F00
3E00
ENDCHAR
STARTCHAR Udieresis
ENCODING 220
SWIDTH 611 0
DWIDTH 11 0
BBX 9 16 1 0
BITMAP
2200
2200
0000
4100
4100
C180
C180
C180
C180
8080
8080
8080
8080
C180
7F00
3E00
ENDCHAR
STARTCHAR Yacute
ENCODING 221
SWIDTH 556 0
DWIDTH 10 0
BBX 10 16 0 0
BITMAP
0700
1E00
0000
C0C0
4080
6180
6180
3300
1E00
0C00
0C00
0C00
0C00
0C00
0C00
0C00
ENDCHAR
STARTCHAR Thorn
ENCODING 222
SWIDTH 556 0
DWIDTH 10 0
BBX 9 13 1 0
BITMAP
4000
C000
C000
FF80
C180
C180
C300
DE00
F800
C000
C000
C000
C000
ENDCHAR
STARTCHAR germandbls
ENCODING 223
SWIDTH 556 0
DWIDTH 10 0
BBX 10 13 0 0
BITMAP
1E00
3200
2200
EE00
3800
3800
2F00
2380
20C0
20C0
20C0
2380
3F00
ENDCHAR
STARTCHAR agrave
ENCODING 224
SWIDTH 500 0
DWIDTH 9 0
BBX 8 14 0 0
BITMAP
20
3C
06
00
7E
07
03
1F
73
43
C3
C3
67
3D
ENDCHAR
STARTCHAR aacute
ENCODING 225
SWIDTH 500 0
DWIDTH 9 0
BBX 8 13 0 0
BITMAP
1E
30
00
7E
07
03
1F
73
43
C3
C3
67
3D
ENDCHAR
STARTCHAR acircumflex
ENCODING 226
SWIDTH 500 0
DWIDTH 9 0
BBX 8 14 0 0
BITMAP
08
14
26
00
7E
07
03
1F
73
43
C3
C3
67
3D
ENDCHAR
STARTCHAR atilde
ENCODING 227
SWIDTH 500 0
DWIDTH 9 0
BBX 8 14 0 0
BITMAP
10
3E
40
00
7E
07
03
1F
73
43
C3
C3
67
3D
ENDCHAR
STARTCHAR adieresis
ENCODING 228
SWIDTH 500 0
DWIDTH 9 0
BBX 8 13 0 0
BITMAP
26
26
00
7E
07
03
1F
73
43
C3
C3
67
3D
ENDCHAR
STARTCHAR aring
ENCODING 229
SWIDTH 500 0
DWIDTH 9 0
BBX 8 15 0 0
BITMAP
18
14
24
1C
00
7E
07
03
1F
73
43
C3
C3
67
3D
ENDCHAR
STARTCHAR ae
ENCODING 230
SWIDTH 833 0
DWIDTH 15 0
BBX 14 10 0 0
BITMAP
7EF8
07DC
0304
1FFC
7300
4300
C300
C380
62C0
3EFC
ENDCHAR
STARTCHAR ccedilla
ENCODING 231
SWIDTH 500 0
DWIDTH 9 0
BBX 8 14 1 -4
BITMAP
3E
E0
C0
80
80
C0
C0
60
78
1F
08
0C
06
3C
ENDCHAR
STARTCHAR egrave
ENCODING 232
SWIDTH 556 0
DWIDTH 10 0
BBX 8 13 1 0
BITMAP
38
0E
00
3C
66
C3
C1
FF
80
C0
C0
60
3F
ENDCHAR
STARTCHAR eacute
ENCODING 233
SWIDTH 556 0
DWIDTH 10 0
BBX 8 13 1 0
BITMAP
1E
30
00
3C
66
C3
C1
FF
80
C0
C0
60
3F
ENDCHAR
STARTCHAR ecircumflex
ENCODING 234
SWIDTH 556 0
DWIDTH 10 0
BBX 8 14 1 0
BITMAP
18
3C
26
00
3C
66
C3
C1
FF
80
C0
C0
60
3F
ENDCHAR
STARTCHAR edieresis
ENCODING 235
SWIDTH 556 0
DWIDTH 10 0
BBX 8 13 1 0
BITMAP
66
66
00
3C
66
C3
C1
FF
80
C0
C0
60
3F
ENDCHAR
STARTCHAR igrave
ENCODING 236
SWIDTH 222 0
DWIDTH 4 0
BBX 4 14 0 0
BITMAP
80
E0
30
00
60
60
60
60
60
60
60
60
60
60
ENDCHAR
STARTCHAR iacute
ENCODING 237
SWIDTH 222 0
DWIDTH 4 0
BBX 4 14 0 0
BITMAP
10
70
C0
00
60
60
60
60
60
60
60
60
60
60
ENDCHAR
STARTCHAR icircumflex
ENCODING 238
SWIDTH 222 0
DWIDTH 4 0
BBX 6 14 -1 0
BITMAP
30
78
CC
00
30
30
30
30
30
30
30
30
30
30
ENDCHAR
STARTCHAR idieresis
ENCODING 239
SWIDTH 222 0
DWIDTH 4 0
BBX 6 13 -1 0
BITMAP
CC
CC
00
30
30
30
30
30
30
30
30
30
30
ENDCHAR
STARTCHAR eth
ENCODING 240
SWIDTH 556 0
DWIDTH 10 0
BBX 8 13 1 0
BITMAP
76
1C
3E
06
3B
67
C3
81
81
81
C3
66
3C
ENDCHAR
STARTCHAR ntilde
ENCODING 241
SWIDTH 556 0
DWIDTH 10 0
BBX 8 13 1 0
BITMAP
7A
4E
00
DC
FE
C3
C3
C3
C3
C3
C3
C3
C3
ENDCHAR
STARTCHAR ograve
ENCODING 242
SWIDTH 556 0
DWIDTH 10 0
BBX 8 13 1 0
BITMAP
38
0C
00
3C
66
C3
83
81
81
81
C3
66
3C
ENDCHAR
STARTCHAR oacute
ENCODING 243
SWIDTH 556 0
DWIDTH 10 0
BBX 8 13 1 0
BITMAP
1C
30
00
3C
66
C3
83
81
81
81
C3
66
3C
ENDCHAR
STARTCHAR ocircumflex
ENCODING 244
SWIDTH 556 0
DWIDTH 10 0
BBX 8 14 1 0
BITMAP
18
3C
66
00
3C
66
C3
83
81
81
81
C3
66
3C
ENDCHAR
STARTCHAR otilde
ENCODING 245
SWIDTH 556 0
DWIDTH 10 0
BBX 8 13 1 0
BITMAP
7A
4E
00
3C
66
C3
83
81
81
81
C3
66
3C
ENDCHAR
STARTCHAR odieresis
ENCODING 246
SWIDTH 556 0
DWIDTH 10 0
BBX 8 13 1 0
BITMAP
66
66
00
3C
66
C3
83
81
81
81
C3
66
3C
ENDCHAR
STARTCHAR divide
ENCODING 247
SWIDTH 600 0
DWIDTH 11 0
BBX 9 11 1 -1
BITMAP
0800
1C00
1800
0000
0000
FF80
0000
0000
1800
1C00
0800
ENDCHAR
STARTCHAR oslash
ENCODING 248
SWIDTH 556 0
DWIDTH 10 0
BBX 8 13 1 -1
BITMAP
02
02
3E
66
CF
8B
99
91
91
E3
66
7C
40
ENDCHAR
STARTCHAR ugrave
ENCODING 249
SWIDTH 556 0
DWIDTH 10 0
BBX 8 14 1 0
BITMAP
20
38
0C
00
C3
C3
C3
C3
C3
C3
C3
C3
6F
3B
ENDCHAR
STARTCHAR uacute
ENCODING 250
SWIDTH 556 0
DWIDTH 10 0
BBX 8 14 1 0
BITMAP
04
1C
30
00
C3
C3
C3
C3
C3
C3
C3
C3
6F
3B
ENDCHAR
STARTCHAR ucircumflex
ENCODING 251
SWIDTH 556 0
DWIDTH 10 0
BBX 8 14 1 0
BITMAP
18
3C
66
00
C3
C3
C3
C3
C3
C3
C3
C3
6F
3B
ENDCHAR
STARTCHAR udieresis
ENCODING 252
SWIDTH 556 0
DWIDTH 10 0
BBX 8 13 1 0
BITMAP
66
66
00
C3
C3
C3
C3
C3
C3
C3
C3
6F
3B
ENDCHAR
STARTCHAR yacute
ENCODING 253
SWIDTH 500 0
DWIDTH 9 0
BBX 8 18 1 -4
BITMAP
04
3C
60
00
83
83
83
C2
C6
46
64
6C
38
38
30
30
60
40
ENDCHAR
STARTCHAR thorn
ENCODING 254
SWIDTH 556 0
DWIDTH 10 0
BBX 8 17 1 -4
BITMAP
C0
C0
C0
F8
DE
C6
C3
C1
C1
C1
C3
CE
FC
C0
C0
C0
C0
ENDCHAR
STARTCHAR ydieresis
ENCODING 255
SWIDTH 500 0
DWIDTH 9 0
BBX 8 17 1 -4
BITMAP
44
44
00
83
83
83
C2
C6
46
64
6C
38
38
30
30
60
40
ENDCHAR
STARTCHAR .notdef
ENCODING -1
SWIDTH 500 0
DWIDTH 9 0
BBX 9 13 0 0
BITMAP
FF80
C180
C180
A280
9480
9480
8880
9480
9480
A280
C180
C180
FF80
ENDCHAR
STARTCHAR quoteright
ENCODING -1
SWIDTH 222 0
DWIDTH 4 0
BBX 2 5 1 8
BITMAP
40
C0
C0
80
80
ENDCHAR
STARTCHAR quoteleft
ENCODING -1
SWIDTH 222 0
DWIDTH 4 0
BBX 2 5 1 8
BITMAP
80
80
C0
40
40
ENDCHAR
STARTCHAR fraction
ENCODING -1
SWIDTH 167 0
DWIDTH 3 0
BBX 9 13 -3 0
BITMAP
0080
0180
0300
0200
0600
0C00
0800
1800
3000
2000
6000
C000
8000
ENDCHAR
STARTCHAR florin
ENCODING -1
SWIDTH 611 0
DWIDTH 11 0
BBX 11 17 0 -4
BITMAP
01E0
0380
0200
0600
0600
1F80
0400
0400
0400
0C00
0C00
0C00
0C00
0800
0800
7800
F000
ENDCHAR
STARTCHAR quotedblleft
ENCODING -1
SWIDTH 389 0
DWIDTH 7 0
BBX 6 5 0 8
BITMAP
D8
48
6C
24
24
ENDCHAR
STARTCHAR guilsinglleft
ENCODING -1
SWIDTH 278 0
DWIDTH 5 0
BBX 3 7 1 1
BITMAP
20
60
40
C0
40
60
20
ENDCHAR
STARTCHAR guilsinglright
ENCODING -1
SWIDTH 278 0
DWIDTH 5 0
BBX 3 7 1 1
BITMAP
80
C0
40
60
40
C0
80
ENDCHAR
STARTCHAR fi
ENCODING -1
SWIDTH 500 0
DWIDTH 9 0
BBX 8 13 0 0
BITMAP
3F
33
60
FF
63
63
63
63
63
63
63
63
61
ENDCHAR
STARTCHAR fl
ENCODING -1
SWIDTH 500 0
DWIDTH 9 0
BBX 8 13 0 0
BITMAP
3F
33
63
FB
63
63
63
63
63
63
63
63
21
ENDCHAR
STARTCHAR endash
ENCODING -1
SWIDTH 500 0
DWIDTH 9 0
BBX 9 1 0 4
BITMAP
FF80
ENDCHAR
STARTCHAR dagger
ENCODING -1
SWIDTH 389 0
DWIDTH 7 0
BBX 5 13 1 0
BITMAP
20
20
20
F8
F8
20
20
20
20
20
20
20
20
ENDCHAR
STARTCHAR daggerdbl
ENCODING -1
SWIDTH 389 0
DWIDTH 7 0
BBX 5 13 1 0
BITMAP
20
20
20
F8
F8
20
20
20
F8
F8
20
20
20
ENDCHAR
STARTCHAR bullet
ENCODING -1
SWIDTH 500 0
DWIDTH 9 0
BBX 7 6 1 3
BITMAP
38
7C
FE
FE
7C
38
ENDCHAR
STARTCHAR quotesinglbase
ENCODING -1
SWIDTH 222 0
DWIDTH 4 0
BBX 3 5 0 -2
BITMAP
20
60
60
40
C0
ENDCHAR
STARTCHAR quotedblbase
ENCODING -1
SWIDTH 389 0
DWIDTH 7 0
BBX 6 5 0 -2
BITMAP
24
6C
6C
48
D8
ENDCHAR
STARTCHAR quotedblright
ENCODING -1
SWIDTH 389 0
DWIDTH 7 0
BBX 5 5 1 8
BITMAP
48
D8
D8
90
90
ENDCHAR
STARTCHAR ellipsis
ENCODING -1
SWIDTH 1000 0
DWIDTH 18 0
BBX 14 2 2 0
BITMAP
C30C
C30C
ENDCHAR
STARTCHAR perthousand
ENCODING -1
SWIDTH 1000 0
DWIDTH 18 0
BBX 18 13 0 0
BITMAP
708000
C98000
8D0000
8D0000
CA0000
7A0000
060000
05E780
0F34C0
0B1C40
1B3C40
1134C0
31E380
ENDCHAR
STARTCHAR circumflex
ENCODING -1
SWIDTH 222 0
DWIDTH 4 0
BBX 6 3 -1 10
BITMAP
30
78
CC
ENDCHAR
STARTCHAR tilde
ENCODING -1
SWIDTH 222 0
DWIDTH 4 0
BBX 6 3 -1 10
BITMAP
24
FC
80
ENDCHAR
STARTCHAR breve
ENCODING -1
SWIDTH 222 0
DWIDTH 4 0
BBX 6 3 -1 10
BITMAP
84
48
78
ENDCHAR
STARTCHAR dotaccent
ENCODING -1
SWIDTH 222 0
DWIDTH 4 0
BBX 2 2 1 11
BITMAP
C0
C0
ENDCHAR
STARTCHAR ring
ENCODING -1
SWIDTH 222 0
DWIDTH 4 0
BBX 4 4 0 10
BITMAP
60
90
90
60
ENDCHAR
STARTCHAR hungarumlaut
ENCODING -1
SWIDTH 222 0
DWIDTH 4 0
BBX 7 4 -1 10
BITMAP
26
6C
C8
98
ENDCHAR
STARTCHAR ogonek
ENCODING -1
SWIDTH 222 0
DWIDTH 4 0
BBX 5 4 -1 -4
BITMAP
30
40
C8
70
ENDCHAR
STARTCHAR caron
ENCODING -1
SWIDTH 222 0
DWIDTH 4 0
BBX 6 3 -1 10
BITMAP
CC
78
30
ENDCHAR
STARTCHAR emdash
ENCODING -1
SWIDTH 1000 0
DWIDTH 18 0
BBX 18 1 0 4
BITMAP
FFFFC0
ENDCHAR
STARTCHAR Lslash
ENCODING -1
SWIDTH 444 0
DWIDTH 8 0
BBX 8 13 0 0
BITMAP
20
60
60
60
60
78
E0
E0
60
60
60
60
7F
ENDCHAR
STARTCHAR OE
ENCODING -1
SWIDTH 1000 0
DWIDTH 18 0
BBX 16 13 1 0
BITMAP
1E7F
77C0
E1C0
C0FF
C040
8040
8040
8040
C0C0
C0C0
61C0
7FC0
1E7F
ENDCHAR
STARTCHAR dotlessi
ENCODING -1
SWIDTH 222 0
DWIDTH 4 0
BBX 2 10 1 0
BITMAP
C0
C0
C0
C0
C0
C0
C0
C0
C0
C0
ENDCHAR
STARTCHAR lslash
ENCODING -1
SWIDTH 222 0
DWIDTH 4 0
BBX 4 13 0 0
BITMAP
60
60
60
60
70
60
E0
60
60
60
60
60
60
ENDCHAR
STARTCHAR oe
ENCODING -1
SWIDTH 944 0
DWIDTH 17 0
BBX 15 10 1 0
BITMAP
3C78
66CC
C386
8102
81FE
8100
C300
C380
66C0
3C7E
ENDCHAR
STARTCHAR trademark
ENCODING -1
SWIDTH 990 0
DWIDTH 18 0
BBX 16 8 1 5
BITMAP
FCC3
30C7
30E7
30AF
30AB
30BB
309B
3093
ENDCHAR
STARTCHAR minus
ENCODING -1
SWIDTH 600 0
DWIDTH 11 0
BBX 9 1 1 4
BITMAP
FF80
ENDCHAR
STARTCHAR Scaron
ENCODING -1
SWIDTH 611 0
DWIDTH 11 0
BBX 9 17 1 0
BITMAP
2200
1400
0C00
0000
7F00
E000
8000
C000
FE00
0F80
0180
0080
0080
0080
0180
0F00
FE00
ENDCHAR
STARTCHAR Ydieresis
ENCODING -1
SWIDTH 556 0
DWIDTH 10 0
BBX 10 16 0 0
BITMAP
3300
3300
0000
C0C0
4080
6180
6180
3300
1E00
0C00
0C00
0C00
0C00
0C00
0C00
0C00
ENDCHAR
STARTCHAR Zcaron
ENCODING -1
SWIDTH 500 0
DWIDTH 9 0
BBX 7 17 1 0
BITMAP
44
2C
18
00
FE
02
06
06
0C
1C
18
30
60
C0
C0
80
FE
ENDCHAR
STARTCHAR scaron
ENCODING -1
SWIDTH 500 0
DWIDTH 9 0
BBX 7 14 1 0
BITMAP
44
28
38
00
7E
C0
80
FC
3E
02
02
02
0E
FC
ENDCHAR
STARTCHAR zcaron
ENCODING -1
SWIDTH 444 0
DWIDTH 8 0
BBX 8 14 0 0
BITMAP
66
3C
18
00
7E
02
06
0E
1C
38
70
60
C0
FF
ENDCHAR
STARTCHAR Delta
ENCODING -1
SWIDTH 707 0
DWIDTH 13 0
BBX 11 13 1 0
BITMAP
0C00
0E00
1A00
1B00
1100
3100
2180
6080
40C0
4040
C060
8060
FFE0
ENDCHAR
STARTCHAR Omega
ENCODING -1
SWIDTH 795 0
DWIDTH 14 0
BBX 12 12 1 0
BITMAP
1F80
30C0
6060
4030
C030
C010
C010
4030
4020
2060
10C0
F8F0
ENDCHAR
STARTCHAR pi
ENCODING -1
SWIDTH 621 0
DWIDTH 11 0
BBX 11 9 0 0
BITMAP
FFE0
1080
3080
3080
3080
3080
2080
2080
6080
ENDCHAR
STARTCHAR Euro
ENCODING -1
SWIDTH 611 0
DWIDTH 11 0
BBX 10 13 1 0
BITMAP
0FC0
3C00
3000
2000
FF00
6000
FF00
2000
3000
1800
1C00
0F80
03C0
ENDCHAR
STARTCHAR estimated
ENCODING -1
SWIDTH 844 0
DWIDTH 15 0
BBX 14 13 1 0
BITMAP
0F80
3060
4010
C018
C018
C018
C01C
FFE0
C000
C000
4000
2030
1FC0
ENDCHAR
STARTCHAR partialdiff
ENCODING -1
SWIDTH 592 0
DWIDTH 11 0
BBX 9 14 1 0
BITMAP
7C00
4600
0300
0100
0100
0180
3D80
6380
C180
8100
8100
C300
4600
3C00
ENDCHAR
STARTCHAR product
ENCODING -1
SWIDTH 758 0
DWIDTH 14 0
BBX 13 14 0 -2
BITMAP
FFF8
1020
1020
1020
1020
1020
1020
1020
1020
1020
1020
1020
1020
1020
ENDCHAR
STARTCHAR summation
ENCODING -1
SWIDTH 601 0
DWIDTH 11 0
BBX 10 14 0 -2
BITMAP
7FC0
6000
3000
1800
0C00
0C00
0600
0600
0C00
1800
1000
2000
4000
FFC0
ENDCHAR
STARTCHAR uni2219
ENCODING -1
SWIDTH 305 0
DWIDTH 5 0
BBX 2 2 2 4
BITMAP
C0
C0
ENDCHAR
STARTCHAR radical
ENCODING -1
SWIDTH 612 0
DWIDTH 11 0
BBX 10 17 1 -3
BITMAP
0040
0040
0080
0080
0080
0080
0100
0100
E100
2100
2200
3200
1200
1200
0C00
0C00
0C00
ENDCHAR
STARTCHAR infinity
ENCODING -1
SWIDTH 810 0
DWIDTH 15 0
BBX 13 6 1 2
BITMAP
70E0
CD10
8608
8608
CD10
70E0
ENDCHAR
STARTCHAR integral
ENCODING -1
SWIDTH 373 0
DWIDTH 7 0
BBX 6 18 0 -3
BITMAP
0C
10
10
10
10
10
10
10
10
10
10
10
10
10
10
10
30
E0
ENDCHAR
STARTCHAR approxequal
ENCODING -1
SWIDTH 605 0
DWIDTH 11 0
BBX 9 6 1 2
BITMAP
7080
8D00
8200
7080
8980
8700
ENDCHAR
STARTCHAR notequal
ENCODING -1
SWIDTH 605 0
DWIDTH 11 0
BBX 9 8 1 1
BITMAP
0200
0400
FF80
0800
0800
FF80
1000
2000
ENDCHAR
STARTCHAR lessequal
ENCODING -1
SWIDTH 605 0
DWIDTH 11 0
BBX 9 11 1 0
BITMAP
0080
0300
0C00
3000
C000
6000
1800
0600
0180
0000
FF80
ENDCHAR
STARTCHAR greaterequal
ENCODING -1
SWIDTH 605 0
DWIDTH 11 0
BBX 9 11 1 0
BITMAP
8000
6000
1800
0600
0180
0300
0C00
3000
C000
0000
FF80
ENDCHAR
STARTCHAR lozenge
ENCODING -1
SWIDTH 613 0
DWIDTH 11 0
BBX 9 14 1 -1
BITMAP
0800
1400
1400
2200
6300
4100
C180
C180
4100
6300
2200
1400
1400
0800
ENDCHAR
STARTCHAR uni02C9
ENCODING -1
SWIDTH 222 0
DWIDTH 4 0
BBX 4 1 0 11
BITMAP
F0
ENDCHAR
STARTCHAR uni03A9
ENCODING -1
SWIDTH 795 0
DWIDTH 14 0
BBX 12 12 1 0
BITMAP
1F80
30C0
6060
4030
C030
C010
C010
4030
4020
2060
10C0
F8F0
ENDCHAR
STARTCHAR afii61289
ENCODING -1
SWIDTH 528 0
DWIDTH 10 0
BBX 8 13 1 0
BITMAP
3C
24
66
44
44
4C
48
50
60
C0
61
22
3C
ENDCHAR
STARTCHAR uni03BC
ENCODING -1
SWIDTH 556 0
DWIDTH 10 0
BBX 8 14 1 -4
BITMAP
C3
C3
C3
C3
C3
C3
C3
C3
EF
FB
C0
C0
C0
C0
ENDCHAR
STARTCHAR uni2215
ENCODING -1
SWIDTH 167 0
DWIDTH 3 0
BBX 9 13 -3 0
BITMAP
0080
0180
0300
0200
0600
0C00
0800
1800
3000
2000
6000
C000
8000
ENDCHAR
ENDFONT
